<svg width="123" height="19" viewBox="0 0 123 19" xmlns="http://www.w3.org/2000/svg">
<path d="M0.12207 16.1673H0.97459L1.76566 8.85205H0.913145L0.12207 16.1673Z" />
<path d="M1.54625 6.36484C1.38065 6.36342 1.22107 6.42681 1.1016 6.54149C1.04114 6.5955 0.992567 6.66148 0.958948 6.73525C0.92533 6.80902 0.907406 6.88896 0.906304 6.97002C0.905202 7.05108 0.920952 7.13149 0.952552 7.20614C0.984152 7.2808 1.03091 7.34808 1.08988 7.40371C1.21056 7.51914 1.37089 7.58393 1.53789 7.58476C1.70488 7.58559 1.86584 7.52238 1.98766 7.40815C2.04808 7.35543 2.09642 7.2903 2.12934 7.21718C2.16227 7.14407 2.17902 7.06471 2.17846 6.98452C2.18115 6.90275 2.1664 6.82134 2.13517 6.74572C2.10395 6.67009 2.05697 6.60199 1.99737 6.54593C1.93807 6.48716 1.86761 6.44086 1.79013 6.40976C1.71265 6.37865 1.62972 6.36338 1.54625 6.36484Z" />
<path d="M13.3048 8.75598C12.8139 8.74612 12.3291 8.86602 11.8993 9.10356C11.5053 9.32294 11.1804 9.64797 10.9611 10.042H10.8851C10.7893 9.66451 10.5665 9.33146 10.2541 9.09871C9.9058 8.85827 9.48861 8.73782 9.0657 8.75558C8.61437 8.74633 8.16957 8.86441 7.78227 9.09629C7.41246 9.32295 7.11557 9.65107 6.92693 10.0416H6.83679L6.96978 8.85096H5.60309L4.81201 16.1662H6.23651L6.72158 11.6558C6.74692 11.3469 6.84844 11.049 7.01708 10.7889C7.17247 10.5472 7.382 10.3451 7.62907 10.1984C7.86079 10.0584 8.12634 9.98415 8.39711 9.98382C8.5688 9.9738 8.74063 10.0007 8.90102 10.0628C9.06141 10.1248 9.20662 10.2206 9.32684 10.3435C9.43952 10.4739 9.52206 10.6275 9.5686 10.7934C9.61513 10.9593 9.6245 11.1335 9.59605 11.3034L9.07055 16.1662H10.4906L10.9951 11.5035C11.0266 11.0906 11.204 10.7023 11.4955 10.4082C11.6446 10.2652 11.8211 10.1539 12.0144 10.0811C12.2077 10.0082 12.4137 9.97526 12.6201 9.98422C12.9608 9.97272 13.2932 10.0912 13.5498 10.3156C13.6819 10.4588 13.7778 10.6314 13.8295 10.8191C13.8813 11.0068 13.8874 11.2042 13.8473 11.3947L13.3279 16.1671H14.752L15.2856 11.2614C15.3745 10.4261 15.2299 9.79966 14.8518 9.38203C14.6547 9.17188 14.4143 9.00705 14.1472 8.89896C13.8801 8.79086 13.5927 8.74207 13.3048 8.75598Z" />
<path d="M24.2566 9.34182C23.9716 9.13491 23.65 8.98404 23.3087 8.89725C22.933 8.79992 22.5463 8.75183 22.1582 8.75418C21.6225 8.74599 21.0898 8.83555 20.5862 9.01849C20.1457 9.18008 19.7463 9.43706 19.4168 9.77104C19.1006 10.0967 18.8662 10.4927 18.7328 10.9265L20.5862 11.0789C20.6893 10.8314 20.8654 10.6212 21.0911 10.4763C21.3615 10.3063 21.6769 10.2218 21.9961 10.2338C22.1343 10.2227 22.2733 10.2391 22.4051 10.282C22.5369 10.3248 22.659 10.3934 22.7642 10.4836C22.8506 10.5759 22.9145 10.6869 22.9508 10.808C22.9872 10.9291 22.9951 11.0569 22.974 11.1816V11.2103C22.9655 11.2814 22.9409 11.3498 22.902 11.41C22.8631 11.4702 22.811 11.5208 22.7496 11.5578C22.5669 11.6554 22.3671 11.717 22.1611 11.7393C21.8962 11.7803 21.5508 11.8231 21.125 11.8678C20.7682 11.8978 20.4145 11.9573 20.0676 12.0457C19.7436 12.1266 19.4338 12.2559 19.1484 12.4292C18.8747 12.5978 18.6426 12.8259 18.4693 13.0965C18.2784 13.4065 18.1634 13.7573 18.1337 14.1202C18.0681 14.5323 18.1332 14.9546 18.3197 15.3278C18.4965 15.6486 18.7721 15.9037 19.1055 16.0553C19.489 16.2264 19.9057 16.31 20.3255 16.3002C20.6558 16.3052 20.9847 16.2563 21.2992 16.1555C21.5728 16.066 21.8285 15.9293 22.0548 15.7514C22.2662 15.5829 22.4467 15.379 22.5883 15.1488H22.6453L22.5358 16.1632H24.4603L24.9939 11.2284C25.0454 10.8496 25.0002 10.4639 24.8625 10.1073C24.7345 9.80148 24.5249 9.53669 24.2566 9.34182ZM22.7298 13.5511C22.7038 13.8017 22.61 14.0405 22.4586 14.2418C22.3031 14.4483 22.1004 14.6146 21.8676 14.7268C21.6156 14.8483 21.3388 14.9095 21.0591 14.9055C20.7924 14.9201 20.5286 14.8437 20.3109 14.6889C20.2192 14.6143 20.1494 14.5162 20.1092 14.4051C20.0689 14.2939 20.0597 14.1739 20.0825 14.058C20.0924 13.8814 20.1604 13.713 20.2757 13.579C20.3996 13.4427 20.5539 13.3375 20.7261 13.2719C20.9328 13.1905 21.1486 13.1345 21.3688 13.105C21.4803 13.0888 21.6057 13.0714 21.7451 13.05C21.8846 13.0286 22.024 13.0055 22.1619 12.9789C22.2997 12.9522 22.4262 12.9219 22.5406 12.8887C22.6357 12.8635 22.7269 12.8258 22.8119 12.7764L22.7298 13.5511Z" />
<path d="M32.766 10.1039H32.6993C32.627 9.87129 32.5133 9.65361 32.3638 9.46129C32.1969 9.247 31.9835 9.07342 31.7397 8.95366C31.4382 8.81278 31.1077 8.74507 30.7752 8.75603C30.2572 8.75796 29.7488 8.89594 29.301 9.15615C28.7979 9.45444 28.3816 9.87895 28.0931 10.3876C27.7302 11.0373 27.5126 11.7579 27.4553 12.4998C27.3515 13.1815 27.4126 13.8782 27.6335 14.5315C27.8054 15.0126 28.1341 15.4218 28.5669 15.6934C28.9988 15.9475 29.4927 16.0769 29.9938 16.0673C30.3234 16.0717 30.6515 16.0204 30.9639 15.9153C31.2357 15.8232 31.4877 15.6809 31.7069 15.4958C31.9058 15.3275 32.0695 15.1214 32.1884 14.8896H32.2692L32.1314 16.176C32.1267 16.3573 32.081 16.5351 31.9976 16.6961C31.9142 16.8572 31.7953 16.9972 31.6499 17.1056C31.3522 17.2974 31.0034 17.3944 30.6495 17.384C30.4319 17.3891 30.2149 17.3601 30.0063 17.2979C29.8518 17.2529 29.7103 17.1712 29.594 17.0599C29.4969 16.9636 29.4299 16.8411 29.4012 16.7075L27.186 16.8315C27.1962 17.231 27.333 17.6169 27.5765 17.9337C27.8592 18.2881 28.2342 18.5576 28.6602 18.7125C29.2221 18.9181 29.8178 19.015 30.4158 18.9982C31.0873 19.0091 31.7552 18.8996 32.388 18.6749C32.9312 18.4846 33.4162 18.1575 33.796 17.7251C34.1593 17.2923 34.3783 16.7568 34.4225 16.1934L35.2176 8.84899H32.8978L32.766 10.1039ZM32.5376 12.4994C32.5049 12.8478 32.4122 13.188 32.2635 13.5049C32.1441 13.7617 31.9603 13.9832 31.73 14.1479C31.5089 14.2981 31.2469 14.3763 30.9797 14.3718C30.7248 14.3828 30.4741 14.3035 30.2719 14.1479C30.0783 13.9808 29.9444 13.755 29.8907 13.5049C29.8166 13.175 29.8013 12.8346 29.8454 12.4994C29.8737 12.1481 29.9614 11.8043 30.105 11.4825C30.2212 11.219 30.4019 10.9889 30.6305 10.8136C30.8487 10.6543 31.113 10.5707 31.3831 10.5756C31.6386 10.5653 31.8892 10.6481 32.0881 10.8088C32.2847 10.9844 32.4219 11.2167 32.481 11.4736C32.5623 11.8095 32.5815 12.1574 32.5376 12.5002V12.4994Z" />
<path d="M44.2628 13.8054H41.8621C41.7943 13.9426 41.6978 14.0636 41.5792 14.1603C41.4562 14.2591 41.3154 14.3334 41.1644 14.3793C41.0017 14.4294 40.8322 14.4544 40.662 14.4533C40.435 14.4617 40.21 14.4073 40.012 14.2961C39.8431 14.1965 39.7117 14.0441 39.6381 13.8624C39.5599 13.6627 39.5322 13.4469 39.5572 13.2339L39.571 13.12H44.3352L44.397 12.5101C44.4641 11.9875 44.4342 11.457 44.3089 10.9452C44.2001 10.5095 43.9926 10.1047 43.7026 9.7618C43.4132 9.43033 43.0479 9.1738 42.6378 9.01411C42.169 8.83487 41.67 8.74746 41.1681 8.75666C40.4656 8.74297 39.7708 8.9051 39.1469 9.22832C38.5644 9.53805 38.0715 9.9925 37.7156 10.5479C37.3374 11.1455 37.1064 11.8242 37.0413 12.5283C36.9429 13.2126 37.0232 13.9107 37.2745 14.5547C37.504 15.1051 37.9129 15.5617 38.4347 15.8505C39.0412 16.1682 39.7197 16.3233 40.4041 16.3007C41.0214 16.3115 41.6354 16.2073 42.2146 15.9935C42.7125 15.8081 43.1614 15.5115 43.5271 15.1262C43.8757 14.752 44.1282 14.2987 44.2628 13.8054ZM40.4376 10.7431C40.6228 10.6515 40.8268 10.6042 41.0335 10.6049C41.2317 10.5999 41.4278 10.6468 41.6022 10.7411C41.7584 10.8271 41.8852 10.958 41.966 11.117C42.0506 11.2889 42.0837 11.4816 42.0614 11.6719H39.7484C39.7771 11.4738 39.854 11.2857 39.9724 11.1242C40.0949 10.962 40.2544 10.8313 40.4376 10.7431Z" />
<path d="M82.2391 5.9556C81.7497 5.94689 81.2645 6.04783 80.8191 6.25104C80.4048 6.4457 80.0543 6.75405 79.8085 7.14019C79.5319 7.59526 79.3669 8.10937 79.3271 8.64043L79.304 8.85019H78.3691L78.1597 10.7554H79.0967L78.5073 16.1659H81.1368L81.7237 10.7554H83.0577L83.2675 8.85019H81.9335L81.9687 8.52686C81.98 8.37308 82.042 8.22738 82.145 8.1126C82.2157 8.05313 82.2978 8.00855 82.3862 7.98154C82.4746 7.95452 82.5676 7.94563 82.6595 7.95538C82.7704 7.95625 82.881 7.96503 82.9906 7.98165C83.1 7.99587 83.2082 8.01885 83.314 8.05036L83.8953 6.16414C83.7522 6.12615 83.5251 6.0817 83.2141 6.03077C82.8917 5.97948 82.5656 5.95433 82.2391 5.9556Z" />
<path d="M89.107 8.75599C88.7179 8.75121 88.3383 8.87606 88.0281 9.11085C87.6749 9.39946 87.4099 9.78149 87.2633 10.2134H87.1873L87.3348 8.85097H84.9293L84.1382 16.1663H86.6157L87.0349 12.275C87.062 12.0099 87.152 11.7552 87.2972 11.5318C87.4287 11.33 87.6065 11.1626 87.8159 11.0435C88.0145 10.9295 88.2396 10.8694 88.4687 10.8693C88.5954 10.8685 88.7215 10.8872 88.8426 10.9247C88.9582 10.9611 89.0686 11.0015 89.1737 11.046L90.1074 9.02193C89.9647 8.93224 89.8088 8.86555 89.6454 8.8243C89.4696 8.77829 89.2886 8.75533 89.107 8.75599Z" />
<path d="M96.5324 9.35219C96.2466 9.14468 95.9244 8.99277 95.5824 8.90438C95.1991 8.80337 94.8041 8.75363 94.4077 8.75646C93.8628 8.74749 93.3208 8.83957 92.8094 9.02805C92.3663 9.19354 91.9658 9.4559 91.6372 9.79596C91.3238 10.1244 91.0935 10.5229 90.9653 10.9583L92.8757 11.0965C92.9717 10.8537 93.1413 10.6471 93.3608 10.5057C93.6245 10.3413 93.9315 10.26 94.242 10.2725C94.5105 10.253 94.7759 10.3401 94.9805 10.515C95.065 10.6035 95.1279 10.7104 95.1642 10.8273C95.2005 10.9442 95.2093 11.0679 95.1899 11.1887V11.2129C95.1813 11.284 95.1567 11.3523 95.1179 11.4125C95.0791 11.4727 95.0272 11.5233 94.966 11.5605C94.7838 11.6577 94.585 11.7198 94.3798 11.7436C94.1163 11.7864 93.7732 11.8285 93.3507 11.8697C92.9919 11.8965 92.6362 11.9563 92.2884 12.0483C91.9648 12.1318 91.6556 12.2634 91.3712 12.4388C91.0995 12.6086 90.8692 12.8372 90.6973 13.1076C90.5079 13.4184 90.3937 13.7691 90.3638 14.1318C90.298 14.5431 90.3631 14.9646 90.5498 15.337C90.726 15.6566 91.0009 15.9106 91.3336 16.0608C91.7163 16.2305 92.1318 16.3133 92.5503 16.3033C92.8772 16.3075 93.2027 16.2602 93.5148 16.1631C94.0534 15.9943 94.5129 15.6364 94.8083 15.1555H94.8657L94.7562 16.17H96.7369L97.2705 11.2263C97.3218 10.8525 97.276 10.4718 97.1375 10.1209C97.0088 9.81479 96.7997 9.54917 96.5324 9.35219ZM94.9462 13.5579C94.92 13.803 94.8269 14.0363 94.677 14.232C94.5236 14.4321 94.3255 14.5935 94.0985 14.7033C93.8551 14.8212 93.5876 14.8807 93.3171 14.877C93.0579 14.8913 92.8015 14.8175 92.5895 14.6677C92.4999 14.5952 92.4316 14.4998 92.3917 14.3917C92.3519 14.2836 92.342 14.1667 92.3632 14.0534C92.374 13.882 92.4391 13.7185 92.5491 13.5866C92.6688 13.4513 92.8192 13.3467 92.9877 13.2814C93.1911 13.2003 93.4041 13.146 93.6215 13.1198C93.7325 13.1039 93.8556 13.0847 93.9906 13.0624C94.126 13.0401 94.2598 13.0163 94.3948 12.9912C94.5184 12.9681 94.6408 12.9387 94.7614 12.9031C94.8529 12.878 94.941 12.8419 95.0238 12.7956L94.9462 13.5579Z" />
<path d="M102.983 10.3287C103.163 10.3147 103.345 10.3437 103.512 10.4132C103.679 10.4828 103.828 10.5909 103.945 10.7289C104.168 11.0476 104.255 11.4414 104.188 11.8241L103.716 16.168H105.593L106.098 11.5097C106.173 11.0121 106.122 10.5037 105.95 10.0309C105.801 9.63902 105.527 9.3069 105.171 9.08556C104.781 8.85709 104.334 8.74321 103.882 8.75697C103.383 8.74546 102.891 8.87339 102.46 9.12638C102.065 9.36184 101.747 9.70675 101.543 10.1194H101.457L101.591 8.85276H99.7999L99.0088 16.168H100.885L101.347 11.9098C101.376 11.608 101.472 11.3166 101.63 11.0579C101.771 10.83 101.97 10.6435 102.207 10.5171C102.446 10.3907 102.712 10.326 102.983 10.3287Z" />
<path d="M109.94 11.1541C110.124 10.7965 110.397 10.4916 110.731 10.2682C111.051 10.0606 111.426 9.95204 111.808 9.95618C111.998 9.94371 112.19 9.97025 112.37 10.0342C112.55 10.0981 112.716 10.1981 112.856 10.328C113.096 10.5657 113.247 10.8782 113.284 11.2135H114.67C114.681 10.7598 114.563 10.3124 114.33 9.92303C114.098 9.55085 113.765 9.25258 113.37 9.06339C112.915 8.84902 112.417 8.74371 111.915 8.75582C111.266 8.74536 110.626 8.91176 110.064 9.23717C109.515 9.56201 109.058 10.0222 108.738 10.5737C108.387 11.1763 108.172 11.8484 108.109 12.5428C108.021 13.2001 108.089 13.8687 108.306 14.4953C108.498 15.0388 108.859 15.5068 109.335 15.8314C109.864 16.1696 110.483 16.3387 111.11 16.3164C111.642 16.3261 112.171 16.217 112.656 15.9971C113.094 15.7957 113.48 15.4959 113.783 15.1209C114.08 14.7518 114.285 14.3178 114.383 13.8543H112.998C112.917 14.1044 112.784 14.3346 112.608 14.53C112.44 14.7153 112.235 14.8624 112.005 14.9613C111.768 15.0628 111.513 15.114 111.255 15.1116C110.889 15.1235 110.531 15.0109 110.238 14.7923C109.951 14.5615 109.744 14.2468 109.645 13.8923C109.519 13.4431 109.487 12.973 109.55 12.5109C109.589 12.0374 109.722 11.5763 109.94 11.1541Z" />
<path d="M122.753 10.7492C122.651 10.3365 122.453 9.9534 122.177 9.63004C121.926 9.34061 121.61 9.11391 121.256 8.96802C120.899 8.82286 120.517 8.74925 120.131 8.7514C119.522 8.745 118.924 8.91452 118.409 9.23962C117.881 9.57811 117.443 10.0409 117.135 10.5875C116.791 11.1912 116.58 11.8608 116.515 12.5521C116.427 13.2118 116.494 13.8828 116.71 14.5123C116.899 15.0511 117.253 15.5162 117.723 15.8408C118.232 16.1731 118.832 16.3403 119.44 16.3197C119.893 16.3265 120.344 16.2466 120.767 16.0841C121.139 15.9394 121.48 15.727 121.774 15.4576C122.039 15.2166 122.256 14.9271 122.413 14.6048L121.641 14.3425C121.518 14.5687 121.358 14.7725 121.167 14.9455C120.959 15.1337 120.717 15.2814 120.455 15.3812C120.157 15.493 119.84 15.5478 119.522 15.5429C119.066 15.5592 118.615 15.4443 118.223 15.2119C117.871 14.9847 117.607 14.6432 117.476 14.2447C117.323 13.7659 117.278 13.2595 117.341 12.7611H122.794L122.842 12.3419C122.911 11.8101 122.881 11.2701 122.753 10.7492ZM122.003 12.0138H117.431C117.499 11.611 117.645 11.2253 117.859 10.8777C118.098 10.4851 118.421 10.1507 118.805 9.89881C119.175 9.65152 119.61 9.52035 120.055 9.52213C120.455 9.50975 120.849 9.62496 121.18 9.85111C121.491 10.0745 121.729 10.3852 121.863 10.7439C122.014 11.1494 122.062 11.586 122.003 12.0146V12.0138Z" />
<path d="M72.955 12.5805C72.3486 13.5282 71.3235 15.197 69.7167 11.0483C68.2453 7.30738 65.6866 11.5001 64.3583 13.1859C63.0474 14.8486 63.6412 12.7672 63.7115 12.4681C64.0838 10.8341 64.6497 8.26847 64.6497 8.26847C65.0135 5.94092 63.5498 6.2016 62.8266 6.80218C62.1035 7.40276 61.1645 8.91756 58.2063 12.7999C56.2078 15.2136 55.3205 13.428 55.1746 12.1056C55.063 11.2758 54.8678 9.86612 54.8678 9.86612C54.4595 7.40074 52.6365 9.30434 52.6365 9.30434L51.4137 10.7338L49.7563 12.7332L49.9051 14.2969L51.48 12.6306C52.742 11.6262 53.3556 13.9865 53.3556 13.9865C53.3556 13.9865 53.7073 15.6007 54.8108 16.2361C56.1282 16.9947 57.9419 14.9193 59.8499 12.6977C61.3593 10.9101 61.7037 11.8178 61.4935 12.6011C61.2833 13.3843 61.0125 14.307 60.3859 17.0622C59.9518 19.1759 61.4591 19.1876 62.4204 17.9639C63.5078 16.5925 64.8365 14.7488 66.1648 13.198C67.4939 11.6404 68.0792 13.4239 68.4523 14.1066C68.8254 14.7892 70.0591 17.2796 71.6332 15.7301C73.2056 14.1745 72.955 12.5805 72.955 12.5805Z" />
<path d="M58.4292 4.69485C59.9361 3.00426 59.6293 1.44622 58.9397 0.997199C58.1119 0.475833 56.8563 1.08288 56.0357 1.85765C56.0357 1.85765 53.707 3.90917 54.4924 5.35364C55.1978 6.64937 56.9343 6.43799 58.4292 4.69485Z" />
</svg>
