<svg width="2540" height="2683" viewBox="0 0 2540 2683" fill="none" xmlns="http://www.w3.org/2000/svg" id="home-intro-background">
    <path d="M1406 402.746C1441.14 398.96 1496.64 385.766 1530.3 391.311C1637.41 408.954 1617.08 654.531 1616.08 660.748C1592.76 806.903 1262.03 694.969 1248.64 778.929C1244.67 803.809 1402.14 1037.19 1389.25 1118.04C1380.32 1174 1176.38 1271.26 1127.42 1263.19C1047.87 1250.09 996.982 919.375 938.845 909.794C896.008 902.741 685.625 1158.49 606.06 1145.39C557.096 1137.32 421.38 984.116 431.791 918.808C450.146 803.751 695.356 703.723 703.781 650.86C715.195 579.335 403.157 547.084 425.484 407.147C432.926 360.502 515.205 179.387 585.587 190.976C680.443 206.602 818.646 344.261 861.492 351.315C889.029 355.851 899.034 312.818 904.991 275.504C908.963 250.624 909.379 228.358 910.864 219.027L931.696 88.4211C948.15 4.96051 1003.64 -8.23367 1077.08 3.865C1156.63 16.9727 1261.17 31.0029 1244.3 136.729C1233.39 205.141 1194.61 310.454 1180.72 397.518C1178.24 413.067 1188 430.634 1203.3 433.151C1215.54 435.169 1263.91 427.184 1276.65 426.088L1405.99 402.717L1406 402.746Z" fill="#FFD527"/>
    <path d="M1394.64 1610.96C1436.92 1606.4 1503.68 1590.53 1544.18 1597.2C1673.02 1618.42 1648.55 1913.86 1647.36 1921.34C1619.31 2097.17 1221.44 1962.51 1205.33 2063.52C1200.55 2093.44 1390 2374.21 1374.48 2471.47C1363.74 2538.81 1118.4 2655.8 1059.5 2646.1C963.798 2630.33 902.588 2232.49 832.64 2220.95C781.103 2212.46 528.007 2520.14 432.3 2504.37C373.397 2494.67 210.125 2310.36 222.655 2231.79C244.735 2093.38 539.723 1973.04 549.87 1909.45C563.6 1823.41 188.215 1784.6 215.071 1616.26C224.026 1560.15 323.014 1342.26 407.676 1356.2C521.794 1375 688.044 1540.6 739.59 1549.1C772.725 1554.56 784.753 1502.79 791.912 1457.89C796.687 1427.97 797.188 1401.18 798.976 1389.95L824.044 1232.83C843.836 1132.43 910.588 1116.55 998.947 1131.11C1094.65 1146.88 1220.41 1163.76 1200.13 1290.95C1187 1373.25 1140.35 1499.95 1123.64 1604.69C1120.65 1623.39 1132.39 1644.52 1150.8 1647.56C1165.53 1649.98 1223.73 1640.38 1239.05 1639.07L1394.65 1610.95L1394.64 1610.96Z" fill="#24D56D"/>
    <path d="M610.098 431.498C624.831 408.243 643.828 368.026 663.355 350.181C725.474 293.387 860.67 424.349 863.856 427.952C938.901 512.73 713.143 660.364 756.254 709.066C769.029 723.5 982.854 740.134 1024.37 787.03C1053.1 819.492 1012.07 990.805 983.676 1016.76C937.53 1058.95 717.691 930.321 683.97 961.149C659.119 983.866 708.575 1235.62 662.429 1277.81C634.032 1303.77 478.041 1312.57 444.519 1274.7C385.446 1207.96 444.755 1010.15 417.616 979.484C380.888 937.999 211.205 1112.7 139.356 1031.53C115.404 1004.48 48.1886 866.868 89.0113 829.544C144.028 779.246 292.027 761.43 316.879 738.712C332.85 724.105 312.273 697.237 293.115 675.595C280.34 661.162 267.394 650.158 262.6 644.748L195.536 568.995C154.203 518.678 173.191 478.461 215.791 439.523C261.938 397.336 320.689 340.369 374.978 401.689C410.108 441.368 453.559 515.862 498.268 566.362C506.249 575.376 521.332 577.912 530.211 569.792C537.313 563.306 555.951 529.941 561.455 521.647L610.098 431.489V431.498Z" fill="#24D56D"/>
    <path d="M835.334 1333.99C863.741 1335.05 909.405 1330.95 935.589 1339.26C1018.89 1365.71 975.183 1558.89 973.689 1563.74C938.748 1677.41 687.94 1550.01 667.874 1615.31C661.926 1634.67 761.159 1838.72 741.831 1901.61C728.45 1945.14 555.164 1998.97 517.084 1986.88C455.202 1967.24 451.751 1698.02 406.531 1683.67C373.207 1673.09 177.028 1852.39 115.156 1832.74C77.0754 1820.65 -13.8275 1682.96 1.78478 1632.16C29.293 1542.67 235.751 1491.41 248.385 1450.29C265.482 1394.65 20.6405 1332.85 54.0968 1224.01C65.2457 1187.74 151.061 1053.04 205.803 1070.42C279.581 1093.84 374.2 1219.45 407.524 1230.03C428.942 1236.83 441.727 1203.72 450.654 1174.7C456.602 1155.34 459.429 1137.66 461.661 1130.41L492.886 1028.82C515.335 964.272 560.999 960.188 618.124 978.322C680.006 997.964 761.67 1021.24 736.393 1103.47C720.034 1156.68 677.358 1236.05 656.535 1303.77C652.819 1315.85 658.625 1330.97 670.521 1334.76C680.044 1337.78 719.457 1337.02 729.727 1337.62L835.334 1333.98V1333.99Z" fill="#FF3797"/>
    <path d="M924.211 2048.64C939.265 2039.08 961.468 2020.74 977.875 2015.72C1030.05 1999.78 1073.97 2115.22 1074.87 2118.25C1095.94 2189.46 922.376 2212.76 934.48 2253.67C938.064 2265.79 1059.64 2336.02 1071.3 2375.41C1079.37 2402.69 1008.3 2492.14 984.447 2499.44C945.686 2511.29 851.199 2373.29 822.868 2381.95C801.998 2388.33 762.282 2550.81 723.521 2562.65C699.663 2569.94 605.242 2531.05 595.833 2499.24C579.247 2443.17 668.353 2343.25 660.731 2317.5C650.424 2282.65 502.528 2337.75 482.349 2269.57C475.625 2246.85 473.62 2146.67 507.909 2136.2C554.121 2122.07 646.301 2153.38 667.18 2147C680.599 2142.9 675.814 2121.24 670.433 2103.06C666.849 2090.94 662.216 2080.78 660.873 2076.23L642.046 2012.6C631.426 1971.24 653.639 1952.88 689.421 1941.95C728.183 1930.1 778.424 1913.1 793.667 1964.61C803.53 1997.94 808.788 2054.16 821.336 2096.58C823.577 2104.15 831.785 2109.91 839.237 2107.63C845.204 2105.8 865.317 2091.4 870.84 2088.05L924.201 2048.62L924.211 2048.64Z" fill="#2226F7"/>
    <path d="M985.566 1005.86C998.521 1011.04 1020.26 1016.69 1031.02 1024.85C1065.26 1050.82 1014.19 1132.83 1012.73 1134.82C978.417 1181.55 882.957 1081.3 863.24 1108.15C857.396 1116.11 870.607 1226.73 851.628 1252.58C838.484 1270.48 749.85 1266.73 734.191 1254.86C708.754 1235.57 750.2 1110.66 731.609 1096.57C717.907 1086.18 598.635 1136.6 573.198 1117.32C557.539 1105.45 537.576 1026.84 552.905 1005.96C579.922 969.173 683.467 979.581 695.874 962.677C712.668 939.806 609.463 870.837 642.314 826.094C653.264 811.179 714.437 763.14 736.933 780.207C767.259 803.203 790.881 876.843 804.583 887.231C813.387 893.91 824.593 880.725 833.349 868.8C839.193 860.843 843.325 853.145 845.51 850.157L876.176 808.393C896.867 782.283 918.607 787.943 942.096 805.75C967.533 825.037 1001.53 849.272 976.706 883.08C960.64 904.951 928.243 934.559 907.798 962.408C904.148 967.376 904.413 975.324 909.302 979.033C913.217 982.002 931.543 988.152 936.186 990.132L985.547 1005.89L985.566 1005.86Z" fill="#2226F7"/>
    <path d="M1917.87 1052.11C1948.69 1032.55 1994.16 994.985 2027.75 984.724C2134.59 952.082 2224.52 1188.41 2226.35 1194.62C2269.49 1340.4 1914.11 1388.1 1938.9 1471.84C1946.24 1496.66 2195.18 1640.43 2219.05 1721.07C2235.57 1776.9 2090.04 1960.04 2041.2 1974.95C1961.83 1999.2 1768.37 1716.72 1710.37 1734.44C1667.63 1747.49 1586.32 2080.11 1506.95 2104.36C1458.1 2119.28 1264.77 2039.68 1245.49 1974.55C1211.52 1859.79 1393.99 1655.23 1378.38 1602.5C1357.26 1531.17 1054.44 1643.98 1013.14 1504.4C999.369 1457.87 995.264 1252.82 1065.48 1231.37C1160.12 1202.46 1348.85 1266.55 1391.59 1253.49C1419.07 1245.1 1409.26 1200.74 1398.26 1163.53C1390.92 1138.71 1381.43 1117.93 1378.68 1108.63L1340.13 978.356C1318.39 893.679 1363.86 856.117 1437.13 833.725C1516.49 809.475 1619.37 774.665 1650.59 880.121C1670.78 948.353 1681.54 1063.44 1707.25 1150.29C1711.84 1165.8 1728.64 1177.58 1743.91 1172.92C1756.12 1169.19 1797.31 1139.69 1808.61 1132.86L1917.87 1052.12V1052.11Z" fill="#2226F7"/>
    <path d="M2177.07 321.313C2213.38 298.846 2267.08 255.515 2306.5 243.965C2431.92 207.236 2533.97 484.977 2536.04 492.261C2584.58 663.42 2168.23 714.361 2196.11 812.688C2204.37 841.825 2493.67 1013.45 2520.52 1108.14C2539.11 1173.69 2366.45 1385.96 2309.11 1402.76C2215.95 1430.04 1993.38 1096.88 1925.3 1116.82C1875.13 1131.51 1775.61 1519.57 1682.43 1546.85C1625.1 1563.64 1399.99 1467.86 1378.31 1391.39C1340.1 1256.65 1556.25 1019.81 1538.7 957.901C1514.94 874.143 1159.22 1001.99 1112.74 838.116C1097.25 783.494 1095.18 543.51 1177.59 519.37C1288.68 486.841 1508.61 564.411 1558.78 549.718C1591.04 540.271 1580.16 488.244 1567.77 444.539C1559.5 415.402 1548.69 390.965 1545.6 380.038L1502.23 227.09C1477.92 127.715 1531.61 84.3851 1617.61 59.198C1710.77 31.916 1831.59 -7.41671 1866.7 116.405C1889.42 196.521 1900.48 331.327 1929.39 433.286C1934.56 451.496 1954.06 465.507 1971.98 460.261C1986.31 456.061 2034.9 422.11 2048.19 414.268L2177.07 321.304V321.313Z" fill="#FF3797"/>
    <path d="M1961.04 2028.15C1989.44 2029.2 2035.11 2025.11 2061.29 2033.42C2144.59 2059.87 2100.89 2253.05 2099.39 2257.9C2064.45 2371.57 1813.64 2244.17 1793.58 2309.47C1787.63 2328.83 1886.86 2532.88 1867.53 2595.77C1854.15 2639.3 1680.87 2693.13 1642.79 2681.04C1580.91 2661.4 1577.45 2392.18 1532.23 2377.83C1498.91 2367.25 1302.73 2546.54 1240.86 2526.9C1202.78 2514.81 1111.88 2377.11 1127.49 2326.32C1155 2236.83 1361.45 2185.56 1374.09 2144.44C1391.18 2088.81 1146.34 2027.01 1179.8 1918.17C1190.95 1881.9 1276.76 1747.2 1331.51 1764.58C1405.28 1788 1499.9 1913.61 1533.23 1924.19C1554.65 1930.99 1567.43 1897.88 1576.36 1868.86C1582.31 1849.5 1585.13 1831.82 1587.36 1824.56L1618.59 1722.98C1641.04 1658.43 1686.7 1654.35 1743.83 1672.48C1805.71 1692.12 1887.37 1715.4 1862.1 1797.63C1845.74 1850.84 1803.06 1930.2 1782.24 1997.92C1778.52 2010.01 1784.33 2025.13 1796.22 2028.92C1805.75 2031.94 1845.16 2031.17 1855.43 2031.78L1961.04 2028.14V2028.15Z" fill="#FF3797"/>
    <path d="M1398.85 1655.16C1419.25 1654.65 1451.78 1649.71 1470.9 1654.49C1531.71 1669.73 1508.71 1810.08 1507.85 1813.61C1487.71 1896.6 1302.55 1816.47 1290.98 1864.15C1287.55 1878.27 1367.43 2020.06 1356.28 2065.96C1348.56 2097.74 1226.74 2144.01 1198.93 2137.04C1153.76 2125.72 1139.7 1933 1106.69 1924.73C1082.37 1918.62 949.535 2055.79 904.353 2044.47C876.552 2037.51 805.507 1942.9 814.509 1905.81C830.368 1840.48 976.069 1794.58 983.351 1764.56C993.204 1723.95 815.143 1690.56 834.424 1611.09C840.854 1584.61 896.533 1484.3 936.504 1494.32C990.367 1507.82 1063.56 1593.59 1087.88 1599.7C1103.52 1603.62 1111.26 1579.33 1116.4 1558.14C1119.83 1544.02 1121.09 1531.22 1122.38 1525.92L1140.38 1451.75C1153.69 1404.51 1186.23 1399.55 1227.93 1410.01C1273.1 1421.33 1332.61 1434.38 1318.04 1494.41C1308.61 1533.26 1281.44 1592.01 1269.44 1641.45C1267.29 1650.28 1272.11 1660.85 1280.8 1663.02C1287.75 1664.76 1315.96 1662.47 1323.33 1662.45L1398.84 1655.15L1398.85 1655.16Z" fill="#FFD527"/>
    </svg>
