<svg width="591" height="385" viewBox="0 0 591 385" fill="none" xmlns="http://www.w3.org/2000/svg"  id="home-intro-logo">
<path d="M74.9702 3.761L74.3371 45.0831H81.9059C85.6762 15.6522 102.059 0 125.37 0C159.387 0 185.526 28.4871 185.526 86.0906C185.526 150.887 152.452 184.072 98.9075 184.072C91.0292 165.603 85.0502 146.819 81.5823 128.042H74.0206L80.0067 223.835H0V3.761H74.9702ZM108.987 92.0397C108.987 77.3242 105.21 69.8092 94.4971 69.8092C85.6762 69.8092 80.0137 75.1291 80.0137 85.783V97.9888C80.0137 107.692 85.6833 114.27 94.4971 114.27C105.21 114.27 108.987 106.748 108.987 92.0467V92.0397Z" fill="white"/>
<path d="M280.321 184.072C222.05 185.631 193.695 168.728 193.386 131.167C193.069 101.421 218.266 85.1468 256.693 82.3296C271.184 81.0782 291.977 84.2101 308.043 86.3982L308.359 77.3242C295.761 73.2556 280.328 71.3751 264.579 71.3751C246.304 71.6897 227.727 74.507 213.553 79.1977L200.321 16.9035C224.878 6.26367 259.838 0 291.344 0C334.815 0 369.465 25.0477 369.465 56.6597V180.311H300.798L308.359 137.738H300.798C293.236 155.585 287.566 168.728 280.328 184.065L280.321 184.072ZM292.603 113.949C292.603 107.685 291.034 100.806 283.156 100.806C275.278 100.806 273.083 106.748 273.083 114.892C273.083 123.036 275.601 129.608 283.156 129.608C290.711 129.608 292.603 124.288 292.603 116.144V113.956V113.949Z" fill="white"/>
<path d="M121.352 206.317H201.365L197.581 269.862H205.143L219.324 202.248C264.996 200.997 306.575 222.913 301.222 250.771L297.438 269.862H305L319.181 202.248C364.854 200.997 401.079 222.591 401.079 250.771V382.874H321.073V292.407C321.073 284.585 318.548 281.145 312.252 281.145C307.842 281.145 304.381 283.648 301.229 286.78V382.881H221.216V292.414C221.216 284.592 219.014 281.152 212.395 281.152C207.984 281.152 204.524 283.655 201.372 286.787V382.888H121.359V206.338L121.352 206.317Z" fill="white"/>
<g>
    <path d="M499.654 200.871C443.909 200.871 408.309 234.056 408.309 292.911C408.309 348.004 443.901 384.943 499.654 384.943C555.407 384.943 591 351.758 591 292.911C591 237.81 555.724 200.871 499.654 200.871ZM548.275 293.784C546.516 304.571 521.559 296.308 520.546 302.509C520.243 304.347 532.131 321.565 531.153 327.535C530.478 331.667 515.087 338.839 511.394 338.245C505.394 337.281 501.554 312.876 497.164 312.163C493.929 311.639 478.052 330.514 472.052 329.549C468.359 328.955 458.118 317.651 458.898 312.827C460.284 304.333 478.784 296.951 479.424 293.05C480.282 287.772 456.739 285.389 458.42 275.063C458.983 271.624 465.194 258.258 470.505 259.11C477.666 260.264 488.09 270.421 491.326 270.946C493.401 271.281 494.161 268.107 494.611 265.353C494.913 263.515 494.941 261.872 495.054 261.187L496.63 251.546C497.868 245.388 502.06 244.416 507.603 245.304C513.603 246.269 521.495 247.303 520.222 255.112C519.399 260.159 516.473 267.933 515.425 274.357C515.235 275.504 515.974 276.804 517.127 276.986C518.049 277.132 521.699 276.545 522.663 276.461L532.427 274.735C535.078 274.455 539.264 273.483 541.803 273.889C549.885 275.189 548.352 293.316 548.275 293.77V293.784Z" fill="white"/>
</g>
</svg>
